C:\GBW_MyPrograms\KinderuniversiteitApp\Resultaten\Ellis\SpongeBob\SpongeBob_v2.mot
version=1
nRows=16
nColumns=29
inDegrees=yes
endheader
                time	         pelvis_tilt	           pelvis_tx	           pelvis_ty	       hip_flexion_l	       hip_flexion_r	        knee_angle_l	        knee_angle_r	       ankle_angle_l	       ankle_angle_r	    lumbar_extension	hamstrings_r/activation	bifemsh_r/activation	glut_max_r/activation	iliopsoas_r/activation	rect_fem_r/activation	  vasti_r/activation	gastroc_r/activation	 soleus_r/activation	tib_ant_r/activation	hamstrings_l/activation	bifemsh_l/activation	glut_max_l/activation	iliopsoas_l/activation	rect_fem_l/activation	  vasti_l/activation	gastroc_l/activation	 soleus_l/activation	tib_ant_l/activation	
          0.96751611	         -8.71733197	          1.19466245	          0.89533311	         -6.19505986	         28.28999872	        -12.54755276	         -3.20348958	          6.32607616	          7.61826217	          1.93992608	          0.32665376	          0.05000104	          0.08251441	          0.05000035	          0.07599780	          0.08755991	          0.05000138	          0.05806233	          0.29616336	          0.05000045	          0.22629216	          0.05000019	          0.80275087	          0.05000032	          0.05000004	          0.28259867	          0.58886616	          0.05000003	
          0.97719127	         -8.71117123	          1.20962027	          0.89468431	         -5.69671813	         27.31166584	        -15.17342250	         -2.59489272	          5.56424453	          7.36751397	          2.27371626	          0.29600910	          0.05000062	          0.11307394	          0.05000017	          0.06544474	          0.10174806	          0.05000005	          0.05000005	          0.33666253	          0.05000111	          0.19486910	          0.05000018	          0.69128014	          0.05000023	          0.05000004	          0.24335675	          0.50709564	          0.05000002	
          0.98686644	         -8.70219469	          1.22469520	          0.89394940	         -5.00123519	         26.32642400	        -18.13994435	         -2.49782439	          4.59216596	          7.05420127	          2.62174783	          0.27206792	          0.05000533	          0.16606781	          0.05000012	          0.05635708	          0.08761930	          0.06331703	          0.05806300	          0.34257088	          0.08455406	          0.16780948	          0.05000015	          0.59528832	          0.05000014	          0.05000003	          0.20956400	          0.43667985	          0.05000002	
          0.99654160	         -8.69535794	          1.23965319	          0.89330729	         -4.07005095	         25.32921179	        -21.43861012	         -2.45508259	          3.24425624	          6.68754936	          2.95959252	          0.24139825	          0.05806773	          0.24576344	          0.05000007	          0.05000011	          0.07545249	          0.05452481	          0.05000034	          0.43550261	          0.07281320	          0.14450737	          0.06703738	          0.51262602	          0.05000009	          0.05000003	          0.18046374	          0.37604206	          0.05000001	
          1.00621676	         -8.69605234	          1.25418569	          0.89302596	         -2.87914969	         24.39314278	        -25.02527468	         -2.43191856	          1.45596001	          6.18891088	          3.25371490	          0.22920916	          0.05000520	          0.31227353	          0.05000006	          0.05000015	          0.14111303	          0.05000019	          0.05000017	          0.47514265	          0.06270244	          0.12444102	          0.05824140	          0.44144228	          0.05926605	          0.05000014	          0.15540438	          0.32382449	          0.40176712	
          1.01589192	         -8.70706487	          1.26807353	          0.89317819	         -1.48625796	         23.55804458	        -28.75894382	         -2.50257974	         -0.18709873	          5.77526934	          3.47942844	          0.20981171	          0.05000124	          0.34557283	          0.05000005	          0.05000014	          0.18059224	          0.05000016	          0.05000012	          0.50592509	          0.05399591	          0.10716122	          0.05015447	          0.38014319	          0.23621204	          0.05000008	          0.13382479	          0.27885791	          0.38434572	
          1.02556708	         -8.72914142	          1.28129129	          0.89380949	         -0.00389405	         22.81097460	        -32.34946335	         -2.64708360	         -0.71128006	          5.49699925	          3.63479243	          0.19874711	          0.05000168	          0.33561174	          0.05000007	          0.05000020	          0.18598571	          0.05000028	          0.05000030	          0.49341796	          0.05000105	          0.09228513	          0.05000009	          0.32735617	          0.36369005	          0.05000004	          0.11524178	          0.24013543	          0.47112857	
          1.03524224	         -8.75982944	          1.29394321	          0.89496049	          1.50156371	         22.12451790	        -35.60297730	         -2.83583402	         -0.82588617	          5.37201398	          3.73083811	          0.18738414	          0.05000176	          0.32265006	          0.05000009	          0.05000024	          0.18351073	          0.05000033	          0.05000042	          0.47147831	          0.05000195	          0.14800249	          0.05000008	          0.28189926	          0.47491733	          0.05000003	          0.09923928	          0.20679000	          0.46901991	
          1.04491740	         -8.79657516	          1.30615428	          0.89654417	          2.98966745	         21.47045215	        -38.43496420	         -3.03239584	         -0.75002789	          5.36157010	          3.78091318	          0.17918571	          0.05000189	          0.30533278	          0.05000010	          0.05000028	          0.17525145	          0.05000039	          0.05000051	          0.44422594	          0.05000100	          0.18866410	          0.05000007	          0.24322044	          0.55257327	          0.05000003	          0.08912601	          0.17807494	          0.44399283	
          1.05459256	         -8.83689569	          1.31803879	          0.89842425	          4.43815410	         20.82375939	        -40.82272749	         -3.20447971	         -0.53891545	          5.42139427	          3.79684213	          0.17637537	          0.05000210	          0.29445866	          0.05000011	          0.05000030	          0.16592890	          0.05000036	          0.05000041	          0.41952282	          0.05000090	          0.23650273	          0.05000006	          0.23052013	          0.59517874	          0.05000004	          0.08577865	          0.15334729	          0.41615862	
          1.06426772	         -8.87874566	          1.32968275	          0.90046501	          5.84287558	         20.16507929	        -42.78832597	         -3.32654493	         -0.23778808	          5.51330531	          3.78717968	          0.17379492	          0.05000206	          0.28543161	          0.05000011	          0.05000030	          0.15949387	          0.05000031	          0.05000031	          0.39978834	          0.05000072	          0.28909982	          0.05000007	          0.22682389	          0.61060515	          0.05000004	          0.07864406	          0.13205334	          0.38466344	
          1.07394289	         -8.91990099	          1.34114415	          0.90255254	          7.21017946	         19.48014094	        -44.37994875	         -3.38134896	          0.13963060	          5.61681863	          3.75655323	          0.17148396	          0.05000196	          0.27407544	          0.05000011	          0.05000030	          0.15501685	          0.05000028	          0.05000027	          0.38470206	          0.05000054	          0.34742948	          0.05000007	          0.22764175	          0.60333114	          0.05000005	          0.06772803	          0.11371630	          0.35271282	
          1.08361805	         -8.95834868	          1.35245952	          0.90459879	          8.55079903	         18.76077571	        -45.65461670	         -3.36126564	          0.58465270	          5.72346293	          3.70703702	          0.16833574	          0.05000180	          0.25997407	          0.05000011	          0.05000032	          0.15193884	          0.05000025	          0.05000024	          0.37345263	          0.05000041	          0.40885038	          0.05000007	          0.23019204	          0.58016482	          0.05000006	          0.05832396	          0.09792555	          0.32380162	
          1.09329321	         -8.99254379	          1.36365053	          0.90653783	          9.87731818	         18.00432926	        -46.67119122	         -3.26681054	          1.08152560	          5.83097222	          3.63934624	          0.16401787	          0.05000165	          0.24395527	          0.05000011	          0.05000034	          0.14885450	          0.05000023	          0.05000022	          0.36483682	          0.05000031	          0.46974142	          0.05000007	          0.23334796	          0.54696197	          0.05000007	          0.05022747	          0.08432752	          0.29826698	
          1.10296837	         -9.02133475	          1.37472982	          0.90832103	         11.20219535	         17.21220218	        -47.48657912	         -3.10438487	          1.61679138	          5.93935469	          3.55351288	          0.15833393	          0.05000153	          0.22730490	          0.05000011	          0.05000037	          0.14505345	          0.05000021	          0.05000021	          0.35794162	          0.05000024	          0.52696727	          0.05000007	          0.23624343	          0.50861788	          0.05000007	          0.05000047	          0.07261773	          0.28274062	
          1.11264353	         -9.04390402	          1.38570505	          0.90991321	         12.53699314	         16.38840267	        -48.15386099	         -2.88398843	          2.17509047	          6.04897260	          3.44935398	          0.15132687	          0.05000146	          0.21043989	          0.05000011	          0.05000041	          0.13992490	          0.05000020	          0.05000021	          0.35198252	          0.05000019	          0.57606433	          0.05000007	          0.23867287	          0.46906032	          0.05000008	          0.05000040	          0.06253398	          0.26792958	
